<?xml version="1.0" standalone="no"?>
<!DOCTYPE svg PUBLIC "-//W3C//DTD SVG 20010904//EN"
 "http://www.w3.org/TR/2001/REC-SVG-20010904/DTD/svg10.dtd">
<svg version="1.0" xmlns="http://www.w3.org/2000/svg"
 width="1590.000000pt" height="1571.000000pt" viewBox="0 0 1590.000000 1571.000000"
 preserveAspectRatio="xMidYMid meet">

<g transform="translate(0.000000,1571.000000) scale(0.100000,-0.100000)"
fill="#000000" stroke="none">
<path d="M7625 15590 c-1800 -80 -3483 -764 -4845 -1969 -181 -161 -558 -542
-711 -721 -586 -683 -1015 -1395 -1345 -2232 -41 -103 -74 -190 -74 -193 0 -7
189 -6 215 1 15 4 32 35 64 117 125 319 333 748 503 1037 132 224 258 420 271
420 21 0 84 -88 97 -137 13 -43 11 -60 -20 -212 -44 -217 -53 -414 -23 -482
42 -93 194 -224 474 -405 l101 -65 -6 -37 c-16 -96 -18 -181 -6 -218 9 -26 41
-65 102 -123 49 -47 98 -100 108 -116 12 -20 24 -73 34 -155 15 -122 54 -289
77 -332 7 -12 32 -43 57 -70 50 -54 49 -54 220 -42 l91 7 -34 42 c-47 57 -103
181 -122 268 -19 92 -12 269 16 422 12 60 19 117 16 126 -3 10 -26 29 -51 44
-59 34 -105 121 -85 157 17 30 146 142 225 196 99 66 107 108 41 240 -25 50
-44 74 -69 87 -32 17 -38 17 -133 2 -121 -21 -169 -21 -221 -3 -65 23 -101 56
-132 121 -77 156 -38 348 116 580 74 112 126 163 227 225 180 111 405 170 642
170 120 -1 160 -11 290 -74 184 -90 241 -172 310 -448 38 -154 46 -175 74
-200 37 -33 61 -35 117 -9 60 27 85 69 97 159 15 117 73 407 100 499 36 125
37 126 169 152 130 27 186 49 224 86 15 15 99 70 188 122 89 52 182 110 209
129 26 19 53 34 61 34 8 0 39 -10 70 -21 70 -27 101 -20 227 52 47 26 125 64
175 83 79 30 308 91 479 127 61 13 258 16 445 8 96 -4 109 -2 155 20 29 15 86
62 138 113 79 79 91 88 125 88 62 0 140 -26 178 -60 46 -40 73 -50 136 -50 61
0 121 26 165 72 46 49 179 262 203 326 26 70 42 150 34 174 -9 29 -48 32 -110
9 -31 -12 -58 -20 -60 -18 -2 2 12 35 30 75 93 192 113 311 66 389 -14 22 -49
60 -79 83 -29 23 -61 56 -70 72 -57 104 -109 148 -178 148 -45 0 -120 -36
-302 -144 -52 -30 -114 -63 -138 -72 -44 -17 -45 -17 -97 9 -92 47 -128 34
-176 -63 -49 -99 -218 -228 -339 -260 -56 -15 -131 -5 -173 24 -73 48 -106
187 -69 287 37 99 71 140 192 231 63 47 156 120 207 160 134 109 182 119 288
63 36 -19 78 -35 92 -35 15 0 77 14 137 30 144 40 270 49 349 26 51 -15 69
-28 145 -106 123 -125 158 -128 290 -31 36 27 98 68 136 91 72 44 136 92 193
144 41 39 42 71 1 173 -24 60 -32 98 -36 168 -5 95 0 112 32 115 49 5 76 -2
126 -36 124 -84 129 -100 73 -234 -110 -265 -153 -411 -154 -518 0 -29 9 -79
20 -111 27 -82 133 -302 184 -386 24 -38 62 -103 85 -143 53 -91 94 -138 128
-147 53 -13 80 11 173 151 113 171 280 367 384 451 113 92 197 130 316 143
167 19 229 67 320 249 17 35 53 93 79 130 26 36 60 87 75 114 29 52 39 55 94
31 20 -8 107 -42 192 -73 408 -152 1193 -520 1354 -635 34 -24 90 -58 125 -76
83 -41 351 -209 351 -219 0 -9 -18 -18 -160 -78 -126 -53 -164 -86 -187 -163
-23 -76 -23 -263 0 -347 30 -113 79 -222 119 -268 50 -57 129 -94 216 -102 85
-8 121 -39 146 -128 58 -208 60 -210 240 -211 105 0 120 -3 133 -20 22 -29 11
-119 -23 -185 -27 -51 -29 -61 -29 -179 -1 -119 -2 -128 -30 -180 -37 -69
-194 -233 -300 -314 l-80 -61 -165 -6 c-192 -6 -270 -25 -368 -88 -98 -64
-116 -109 -87 -226 47 -195 193 -392 378 -509 94 -60 127 -69 267 -70 138 -1
209 13 315 63 144 67 184 138 219 390 8 56 16 105 19 107 3 3 36 -10 73 -29
207 -104 390 -169 469 -167 28 1 56 1 63 1 22 -2 70 -120 92 -226 11 -54 27
-109 35 -122 34 -51 105 -39 210 33 43 29 71 42 80 37 18 -10 112 -127 129
-161 7 -15 21 -52 31 -82 20 -62 49 -100 77 -100 28 0 94 36 139 77 22 20 41
34 43 32 1 -2 13 -35 25 -74 38 -119 66 -144 214 -193 187 -61 386 -211 448
-337 41 -84 44 -170 8 -236 -22 -39 -29 -44 -64 -47 -88 -7 -360 50 -448 94
-33 16 -104 77 -196 167 -284 276 -438 366 -721 417 -69 13 -165 38 -214 57
-112 43 -364 116 -482 139 -126 25 -384 25 -519 0 -163 -30 -332 -83 -450
-141 -144 -71 -297 -192 -382 -302 -92 -119 -162 -180 -231 -199 -173 -48
-217 -70 -301 -148 -44 -42 -118 -135 -143 -181 -4 -7 267 -10 805 -10 l812 0
124 -38 c1100 -334 2115 -1282 2514 -2347 130 -349 184 -650 174 -984 -8 -269
-31 -347 -105 -360 -20 -3 -483 -6 -1028 -6 l-991 0 -20 -23 c-51 -56 -135
-221 -159 -310 -18 -69 -17 -226 2 -307 8 -35 40 -139 72 -230 55 -160 57
-168 56 -270 0 -116 -14 -174 -68 -294 -50 -109 -159 -267 -256 -370 -122
-130 -224 -254 -263 -319 -46 -75 -93 -222 -108 -332 -15 -113 -6 -273 21
-380 11 -44 23 -121 27 -172 5 -81 3 -101 -20 -175 -31 -98 -191 -428 -265
-545 -151 -241 -209 -377 -219 -517 -9 -127 24 -194 123 -252 24 -14 44 -28
44 -30 0 -2 -61 -40 -135 -84 -922 -549 -1904 -889 -2955 -1024 -318 -41 -480
-50 -910 -50 -443 0 -588 8 -955 55 -1371 174 -2677 729 -3770 1602 -1031 824
-1822 1894 -2301 3115 -82 207 -190 532 -246 737 l-44 160 -107 3 -106 3 9
-28 c5 -15 25 -89 45 -163 178 -659 492 -1378 873 -2000 632 -1032 1513 -1918
2527 -2542 1765 -1087 3901 -1417 5930 -917 1743 430 3282 1452 4378 2908 633
841 1085 1832 1322 2896 126 563 175 992 191 1670 17 676 -84 1476 -271 2140
-266 950 -734 1885 -1324 2644 -580 747 -1317 1405 -2106 1883 -1099 666
-2289 1044 -3545 1127 -219 15 -623 20 -825 11z"/>
<path d="M9510 14146 c-196 -65 -216 -74 -267 -115 -36 -29 -42 -60 -17 -86 9
-9 62 -39 118 -67 55 -28 119 -63 141 -78 75 -50 173 -100 197 -100 38 0 65
26 84 82 11 33 35 71 71 110 30 33 61 76 70 95 13 32 13 40 -2 79 -17 45 -88
118 -131 134 -43 17 -72 11 -264 -54z"/>
<path d="M11421 13228 c-45 -24 -65 -63 -69 -136 -4 -66 -6 -68 -62 -128 -103
-111 -121 -239 -40 -287 33 -20 66 -21 143 -6 54 11 88 8 115 -9 8 -5 16 -49
22 -113 15 -173 53 -257 130 -289 113 -47 374 66 411 177 43 132 -89 365 -352
618 -163 156 -242 202 -298 173z"/>
<path d="M3714 11299 c-72 -21 -104 -86 -69 -137 49 -69 277 -140 505 -157 47
-3 137 -13 200 -21 159 -21 216 -21 240 1 32 29 25 58 -19 83 -30 17 -72 26
-173 36 -122 13 -140 17 -218 55 -47 23 -105 55 -130 71 -74 49 -270 89 -336
69z"/>
<path d="M4685 10752 c-63 -22 -199 -101 -251 -146 -33 -29 -37 -37 -28 -53 6
-10 24 -19 40 -20 16 -2 88 -7 159 -12 78 -6 172 -21 235 -37 113 -29 146 -28
180 6 25 25 26 78 2 106 -10 12 -38 34 -62 49 -25 16 -65 45 -89 66 -38 34
-94 59 -126 59 -5 -1 -33 -8 -60 -18z"/>
<path d="M465 9890 l-28 -100 23 -63 c96 -265 208 -405 399 -500 l84 -42 266
-7 c146 -3 491 -7 767 -7 l501 -1 7 -492 c3 -271 9 -540 13 -597 l6 -104 -449
6 c-247 4 -572 10 -723 13 l-274 7 -104 70 c-200 133 -374 325 -461 507 -120
254 -141 300 -165 365 -14 39 -29 79 -33 90 -9 25 -25 -67 -50 -291 l-18 -161
28 -94 c36 -118 131 -310 204 -413 74 -103 216 -252 300 -316 37 -28 101 -67
141 -88 l75 -37 3435 -5 c3365 -5 3437 -5 3481 -24 90 -39 111 -63 125 -142
16 -97 -43 -174 -154 -200 -70 -17 -363 -18 -961 -4 -490 11 -4117 34 -5180
33 l-694 -1 -60 30 c-95 48 -224 131 -313 202 -100 80 -181 176 -232 276 -21
41 -61 118 -88 170 -28 52 -68 142 -89 200 l-39 105 -8 -120 c-11 -167 -1
-670 19 -910 l16 -200 80 -160 c99 -197 120 -230 247 -387 125 -156 214 -238
310 -286 l75 -37 240 -4 c618 -9 13652 36 13706 47 35 8 35 8 38 69 4 78 -45
347 -93 513 -217 747 -819 1597 -1520 2145 -330 259 -730 459 -1050 525 -107
23 61 21 -2775 35 -635 3 -1909 10 -2830 15 -921 5 -2577 12 -3679 16 l-2003
6 -67 31 c-36 17 -91 49 -121 73 -84 63 -211 202 -257 277 l-40 68 -28 -101z
m4038 -737 l577 -6 0 -584 0 -584 -1027 3 -1028 4 -3 64 c-2 36 -1 300 3 588
l7 522 447 0 c245 0 706 -3 1024 -7z m2165 -13 l997 0 3 -575 3 -575 -788 0
c-433 0 -893 -3 -1021 -7 l-232 -6 5 579 c3 318 5 583 5 588 0 4 7 5 16 2 9
-3 464 -6 1012 -6z m3143 -20 l386 0 -4 -97 c-2 -54 0 -307 4 -561 4 -255 6
-468 3 -472 -3 -5 -456 -6 -1008 -3 l-1002 6 0 411 c0 226 -3 483 -7 570 l-6
159 624 -6 c343 -4 798 -7 1010 -7z m2595 -31 c92 -23 161 -62 349 -196 268
-189 516 -403 808 -695 114 -114 207 -212 207 -218 0 -12 -1293 -14 -2277 -3
l-629 6 -12 236 c-7 130 -14 344 -17 476 -3 132 -8 279 -11 328 l-5 87 751 0
c734 0 753 0 836 -21z"/>
<path d="M3789 9885 c-101 -53 -182 -195 -133 -236 12 -10 66 -13 239 -11 123
1 235 6 249 12 55 21 20 82 -104 181 -108 86 -166 98 -251 54z"/>
<path d="M4451 5952 l-1313 -2 4 -54 c4 -52 22 -96 82 -198 41 -70 44 -157 12
-333 -35 -195 -62 -331 -93 -465 -34 -149 -42 -333 -19 -448 22 -106 20 -157
-8 -320 -65 -367 -70 -627 -17 -817 45 -159 61 -278 61 -455 0 -85 5 -195 10
-243 8 -79 15 -99 63 -190 67 -125 181 -308 254 -404 51 -68 122 -137 218
-210 78 -59 228 -123 290 -123 35 0 72 29 80 63 10 39 -13 183 -67 422 -44
193 -52 246 -53 330 l0 100 69 148 c162 348 315 514 676 730 290 173 430 275
534 388 121 130 324 393 464 599 74 110 130 173 172 195 14 7 67 25 119 39
192 55 424 192 579 341 146 140 244 303 363 603 65 164 99 265 99 295 0 17
-31 17 -632 15 -348 -2 -1224 -4 -1947 -6z"/>
</g>
</svg>
